<mxfile host="app.diagrams.net" agent="Mozilla/5.0 (Windows NT 10.0; Win64; x64) AppleWebKit/537.36 (KHTML, like Gecko) Chrome/141.0.0.0 Safari/537.36" version="28.2.5">
  <diagram name="Page-1" id="w5c8ERlpFwUv5xIerBSc">
    <mxGraphModel dx="1453" dy="852" grid="1" gridSize="10" guides="1" tooltips="1" connect="1" arrows="1" fold="1" page="1" pageScale="1" pageWidth="850" pageHeight="1100" math="0" shadow="0">
      <root>
        <mxCell id="0" />
        <mxCell id="1" parent="0" />
        <mxCell id="kzGIVJuzbTHx1Urgwy5C-2" value="admin" style="html=1;dashed=0;whiteSpace=wrap;shape=partialRectangle;right=0;left=0;" parent="1" vertex="1">
          <mxGeometry x="250" y="20" width="100" height="30" as="geometry" />
        </mxCell>
        <mxCell id="kzGIVJuzbTHx1Urgwy5C-4" style="edgeStyle=orthogonalEdgeStyle;rounded=0;orthogonalLoop=1;jettySize=auto;html=1;exitX=0.444;exitY=-0.018;exitDx=0;exitDy=0;entryX=0;entryY=0.375;entryDx=0;entryDy=0;entryPerimeter=0;exitPerimeter=0;" parent="1" source="kzGIVJuzbTHx1Urgwy5C-6" target="zYKxcOfA-0-OGyM70KTu-15" edge="1">
          <mxGeometry relative="1" as="geometry">
            <mxPoint x="230" y="75" as="targetPoint" />
            <mxPoint x="170" y="75" as="sourcePoint" />
          </mxGeometry>
        </mxCell>
        <mxCell id="zYKxcOfA-0-OGyM70KTu-37" style="edgeStyle=orthogonalEdgeStyle;rounded=0;orthogonalLoop=1;jettySize=auto;html=1;entryX=0.162;entryY=0.011;entryDx=0;entryDy=0;entryPerimeter=0;" parent="1" source="kzGIVJuzbTHx1Urgwy5C-6" target="zYKxcOfA-0-OGyM70KTu-38" edge="1">
          <mxGeometry relative="1" as="geometry">
            <mxPoint x="70" y="379.9999999999998" as="targetPoint" />
          </mxGeometry>
        </mxCell>
        <mxCell id="kzGIVJuzbTHx1Urgwy5C-6" value="ADMIN" style="html=1;dashed=0;whiteSpace=wrap;" parent="1" vertex="1">
          <mxGeometry x="20" y="170" width="100" height="50" as="geometry" />
        </mxCell>
        <mxCell id="kzGIVJuzbTHx1Urgwy5C-8" style="edgeStyle=orthogonalEdgeStyle;rounded=0;orthogonalLoop=1;jettySize=auto;html=1;entryX=0;entryY=0.5;entryDx=0;entryDy=0;exitX=0.5;exitY=1;exitDx=0;exitDy=0;" parent="1" source="zYKxcOfA-0-OGyM70KTu-15" target="kzGIVJuzbTHx1Urgwy5C-9" edge="1">
          <mxGeometry relative="1" as="geometry">
            <mxPoint x="520" y="75" as="targetPoint" />
            <mxPoint x="310" y="75" as="sourcePoint" />
          </mxGeometry>
        </mxCell>
        <mxCell id="kzGIVJuzbTHx1Urgwy5C-10" value="login sebagai admin" style="edgeLabel;html=1;align=center;verticalAlign=middle;resizable=0;points=[];rotation=-90;" parent="kzGIVJuzbTHx1Urgwy5C-8" vertex="1" connectable="0">
          <mxGeometry x="-0.0538" y="-1" relative="1" as="geometry">
            <mxPoint x="-9" y="-13" as="offset" />
          </mxGeometry>
        </mxCell>
        <mxCell id="kzGIVJuzbTHx1Urgwy5C-11" style="edgeStyle=orthogonalEdgeStyle;rounded=0;orthogonalLoop=1;jettySize=auto;html=1;exitX=0.5;exitY=0;exitDx=0;exitDy=0;entryX=1.034;entryY=0.56;entryDx=0;entryDy=0;entryPerimeter=0;" parent="1" source="kzGIVJuzbTHx1Urgwy5C-9" target="kzGIVJuzbTHx1Urgwy5C-13" edge="1">
          <mxGeometry relative="1" as="geometry">
            <mxPoint x="660" y="240" as="targetPoint" />
            <mxPoint x="420" y="80" as="sourcePoint" />
            <Array as="points">
              <mxPoint x="395" y="70" />
              <mxPoint x="810" y="70" />
              <mxPoint x="810" y="239" />
            </Array>
          </mxGeometry>
        </mxCell>
        <mxCell id="kzGIVJuzbTHx1Urgwy5C-18" value="aktivitas pada dashboard admin" style="edgeLabel;html=1;align=center;verticalAlign=middle;resizable=0;points=[];" parent="kzGIVJuzbTHx1Urgwy5C-11" vertex="1" connectable="0">
          <mxGeometry x="-0.6284" y="-1" relative="1" as="geometry">
            <mxPoint y="-12" as="offset" />
          </mxGeometry>
        </mxCell>
        <mxCell id="YUnFpUHWukaaT6bIz78V-2" style="edgeStyle=orthogonalEdgeStyle;rounded=0;orthogonalLoop=1;jettySize=auto;html=1;exitX=0.053;exitY=0.697;exitDx=0;exitDy=0;exitPerimeter=0;entryX=0.981;entryY=0.832;entryDx=0;entryDy=0;entryPerimeter=0;" parent="1" edge="1">
          <mxGeometry relative="1" as="geometry">
            <mxPoint x="119.99999999999997" y="215.51000000000005" as="targetPoint" />
            <Array as="points" />
            <mxPoint x="368.78999999999996" y="214.52000000000004" as="sourcePoint" />
          </mxGeometry>
        </mxCell>
        <mxCell id="kzGIVJuzbTHx1Urgwy5C-9" value="toko baju nerro" style="shape=ellipse;html=1;dashed=0;whiteSpace=wrap;aspect=fixed;perimeter=ellipsePerimeter;" parent="1" vertex="1">
          <mxGeometry x="330" y="130" width="130" height="130" as="geometry" />
        </mxCell>
        <mxCell id="kzGIVJuzbTHx1Urgwy5C-13" value="edit data" style="swimlane;childLayout=stackLayout;horizontal=1;startSize=50;horizontalStack=0;resizeParent=1;resizeParentMax=0;resizeLast=0;collapsible=0;marginBottom=0;swimlaneFillColor=#000000;rotation=0;verticalAlign=middle;" parent="1" vertex="1">
          <mxGeometry x="540" y="200" width="70" height="70" as="geometry" />
        </mxCell>
        <mxCell id="kzGIVJuzbTHx1Urgwy5C-15" value="hapus data" style="swimlane;childLayout=stackLayout;horizontal=1;startSize=50;horizontalStack=0;resizeParent=1;resizeParentMax=0;resizeLast=0;collapsible=0;marginBottom=0;swimlaneFillColor=#000000;rotation=0;verticalAlign=middle;" parent="1" vertex="1">
          <mxGeometry x="540" y="310" width="70" height="70" as="geometry" />
        </mxCell>
        <mxCell id="kzGIVJuzbTHx1Urgwy5C-16" value="" style="endArrow=none;html=1;rounded=0;entryX=0.5;entryY=1;entryDx=0;entryDy=0;exitX=0.5;exitY=0;exitDx=0;exitDy=0;" parent="1" source="kzGIVJuzbTHx1Urgwy5C-15" target="kzGIVJuzbTHx1Urgwy5C-13" edge="1">
          <mxGeometry width="50" height="50" relative="1" as="geometry">
            <mxPoint x="450" y="350" as="sourcePoint" />
            <mxPoint x="500" y="300" as="targetPoint" />
          </mxGeometry>
        </mxCell>
        <mxCell id="kzGIVJuzbTHx1Urgwy5C-17" value="tb_produk" style="html=1;dashed=0;whiteSpace=wrap;shape=partialRectangle;right=0;left=0;" parent="1" vertex="1">
          <mxGeometry x="655" y="200" width="100" height="30" as="geometry" />
        </mxCell>
        <mxCell id="kzGIVJuzbTHx1Urgwy5C-24" style="edgeStyle=orthogonalEdgeStyle;rounded=0;orthogonalLoop=1;jettySize=auto;html=1;exitX=-0.013;exitY=0.468;exitDx=0;exitDy=0;exitPerimeter=0;entryX=1;entryY=0.5;entryDx=0;entryDy=0;" parent="1" source="kzGIVJuzbTHx1Urgwy5C-13" target="kzGIVJuzbTHx1Urgwy5C-9" edge="1">
          <mxGeometry relative="1" as="geometry">
            <mxPoint x="566.4" y="233.18000000000006" as="sourcePoint" />
            <mxPoint x="540" y="140" as="targetPoint" />
            <Array as="points">
              <mxPoint x="480" y="233" />
              <mxPoint x="480" y="195" />
            </Array>
          </mxGeometry>
        </mxCell>
        <mxCell id="kzGIVJuzbTHx1Urgwy5C-25" value="pembayaran" style="swimlane;childLayout=stackLayout;horizontal=1;startSize=50;horizontalStack=0;resizeParent=1;resizeParentMax=0;resizeLast=0;collapsible=0;marginBottom=0;swimlaneFillColor=#000000;rotation=0;verticalAlign=middle;" parent="1" vertex="1">
          <mxGeometry x="540" y="410" width="70" height="70" as="geometry" />
        </mxCell>
        <mxCell id="kzGIVJuzbTHx1Urgwy5C-27" value="" style="endArrow=none;html=1;rounded=0;entryX=0.5;entryY=1;entryDx=0;entryDy=0;exitX=0.5;exitY=0;exitDx=0;exitDy=0;" parent="1" source="kzGIVJuzbTHx1Urgwy5C-25" target="kzGIVJuzbTHx1Urgwy5C-15" edge="1">
          <mxGeometry width="50" height="50" relative="1" as="geometry">
            <mxPoint x="480" y="430" as="sourcePoint" />
            <mxPoint x="530" y="380" as="targetPoint" />
          </mxGeometry>
        </mxCell>
        <mxCell id="kzGIVJuzbTHx1Urgwy5C-30" value="" style="endArrow=none;html=1;rounded=0;exitX=0;exitY=0.571;exitDx=0;exitDy=0;exitPerimeter=0;" parent="1" source="kzGIVJuzbTHx1Urgwy5C-25" edge="1">
          <mxGeometry width="50" height="50" relative="1" as="geometry">
            <mxPoint x="440" y="400" as="sourcePoint" />
            <mxPoint x="480" y="220" as="targetPoint" />
            <Array as="points">
              <mxPoint x="480" y="450" />
              <mxPoint x="480" y="350" />
            </Array>
          </mxGeometry>
        </mxCell>
        <mxCell id="kzGIVJuzbTHx1Urgwy5C-31" value="" style="endArrow=none;html=1;rounded=0;entryX=0;entryY=0.571;entryDx=0;entryDy=0;entryPerimeter=0;" parent="1" target="kzGIVJuzbTHx1Urgwy5C-15" edge="1">
          <mxGeometry width="50" height="50" relative="1" as="geometry">
            <mxPoint x="480" y="350" as="sourcePoint" />
            <mxPoint x="490" y="320" as="targetPoint" />
          </mxGeometry>
        </mxCell>
        <mxCell id="zYKxcOfA-0-OGyM70KTu-20" style="edgeStyle=orthogonalEdgeStyle;rounded=0;orthogonalLoop=1;jettySize=auto;html=1;entryX=-0.008;entryY=0.49;entryDx=0;entryDy=0;entryPerimeter=0;exitX=0.429;exitY=0.006;exitDx=0;exitDy=0;exitPerimeter=0;" parent="1" source="zYKxcOfA-0-OGyM70KTu-2" target="zYKxcOfA-0-OGyM70KTu-21" edge="1">
          <mxGeometry relative="1" as="geometry">
            <mxPoint x="240" y="1205" as="targetPoint" />
          </mxGeometry>
        </mxCell>
        <mxCell id="zYKxcOfA-0-OGyM70KTu-34" style="edgeStyle=orthogonalEdgeStyle;rounded=0;orthogonalLoop=1;jettySize=auto;html=1;entryX=0.2;entryY=0.018;entryDx=0;entryDy=0;entryPerimeter=0;" parent="1" source="zYKxcOfA-0-OGyM70KTu-2" target="zYKxcOfA-0-OGyM70KTu-33" edge="1">
          <mxGeometry relative="1" as="geometry">
            <Array as="points" />
          </mxGeometry>
        </mxCell>
        <mxCell id="zYKxcOfA-0-OGyM70KTu-43" style="edgeStyle=orthogonalEdgeStyle;rounded=0;orthogonalLoop=1;jettySize=auto;html=1;exitX=0.996;exitY=0.795;exitDx=0;exitDy=0;exitPerimeter=0;entryX=0.012;entryY=0.609;entryDx=0;entryDy=0;entryPerimeter=0;" parent="1" source="zYKxcOfA-0-OGyM70KTu-2" target="zYKxcOfA-0-OGyM70KTu-19" edge="1">
          <mxGeometry relative="1" as="geometry">
            <Array as="points">
              <mxPoint x="230" y="1320" />
              <mxPoint x="230" y="1389" />
            </Array>
          </mxGeometry>
        </mxCell>
        <mxCell id="zYKxcOfA-0-OGyM70KTu-2" value="USER" style="html=1;dashed=0;whiteSpace=wrap;" parent="1" vertex="1">
          <mxGeometry x="50" y="1280" width="100" height="50" as="geometry" />
        </mxCell>
        <mxCell id="zYKxcOfA-0-OGyM70KTu-4" value="tb_pembeli" style="html=1;dashed=0;whiteSpace=wrap;shape=partialRectangle;right=0;left=0;" parent="1" vertex="1">
          <mxGeometry x="700" y="330" width="100" height="30" as="geometry" />
        </mxCell>
        <mxCell id="zYKxcOfA-0-OGyM70KTu-5" value="" style="endArrow=classic;html=1;rounded=0;" parent="1" edge="1">
          <mxGeometry width="50" height="50" relative="1" as="geometry">
            <mxPoint x="810" y="240" as="sourcePoint" />
            <mxPoint x="750" y="480" as="targetPoint" />
            <Array as="points">
              <mxPoint x="810" y="480" />
            </Array>
          </mxGeometry>
        </mxCell>
        <mxCell id="zYKxcOfA-0-OGyM70KTu-6" value="kelola user" style="text;html=1;align=center;verticalAlign=middle;resizable=0;points=[];autosize=1;strokeColor=none;fillColor=none;rotation=-90;" parent="1" vertex="1">
          <mxGeometry x="790" y="330" width="80" height="30" as="geometry" />
        </mxCell>
        <mxCell id="zYKxcOfA-0-OGyM70KTu-7" value="mengelola data produk" style="text;html=1;align=center;verticalAlign=middle;resizable=0;points=[];autosize=1;strokeColor=none;fillColor=none;" parent="1" vertex="1">
          <mxGeometry x="630" y="240" width="150" height="30" as="geometry" />
        </mxCell>
        <mxCell id="zYKxcOfA-0-OGyM70KTu-14" value="melihat data&#xa;pengguna" style="swimlane;childLayout=stackLayout;horizontal=1;startSize=50;horizontalStack=0;resizeParent=1;resizeParentMax=0;resizeLast=0;collapsible=0;marginBottom=0;swimlaneFillColor=#000000;rotation=0;verticalAlign=middle;" parent="1" vertex="1">
          <mxGeometry x="680" y="450" width="70" height="70" as="geometry" />
        </mxCell>
        <mxCell id="zYKxcOfA-0-OGyM70KTu-15" value="LOGIN" style="rounded=1;whiteSpace=wrap;html=1;" parent="1" vertex="1">
          <mxGeometry x="260" y="60" width="80" height="40" as="geometry" />
        </mxCell>
        <mxCell id="zYKxcOfA-0-OGyM70KTu-17" value="konfirmasi login" style="text;html=1;align=center;verticalAlign=middle;resizable=0;points=[];autosize=1;strokeColor=none;fillColor=none;" parent="1" vertex="1">
          <mxGeometry x="80" y="50" width="110" height="30" as="geometry" />
        </mxCell>
        <mxCell id="zYKxcOfA-0-OGyM70KTu-42" style="edgeStyle=orthogonalEdgeStyle;rounded=0;orthogonalLoop=1;jettySize=auto;html=1;entryX=1;entryY=0.25;entryDx=0;entryDy=0;exitX=0;exitY=0.405;exitDx=0;exitDy=0;exitPerimeter=0;" parent="1" source="zYKxcOfA-0-OGyM70KTu-19" target="zYKxcOfA-0-OGyM70KTu-2" edge="1">
          <mxGeometry relative="1" as="geometry">
            <Array as="points">
              <mxPoint x="260" y="1363" />
              <mxPoint x="260" y="1292" />
            </Array>
          </mxGeometry>
        </mxCell>
        <mxCell id="zYKxcOfA-0-OGyM70KTu-19" value="toko baju nerro" style="shape=ellipse;html=1;dashed=0;whiteSpace=wrap;aspect=fixed;perimeter=ellipsePerimeter;" parent="1" vertex="1">
          <mxGeometry x="340" y="1310" width="130" height="130" as="geometry" />
        </mxCell>
        <mxCell id="zYKxcOfA-0-OGyM70KTu-25" style="edgeStyle=orthogonalEdgeStyle;rounded=0;orthogonalLoop=1;jettySize=auto;html=1;entryX=0;entryY=0.5;entryDx=0;entryDy=0;" parent="1" source="zYKxcOfA-0-OGyM70KTu-21" target="zYKxcOfA-0-OGyM70KTu-24" edge="1">
          <mxGeometry relative="1" as="geometry" />
        </mxCell>
        <mxCell id="zYKxcOfA-0-OGyM70KTu-21" value="LOGIN" style="rounded=1;whiteSpace=wrap;html=1;" parent="1" vertex="1">
          <mxGeometry x="190" y="1185" width="90" height="40" as="geometry" />
        </mxCell>
        <mxCell id="zYKxcOfA-0-OGyM70KTu-23" value="tb_user" style="html=1;dashed=0;whiteSpace=wrap;shape=partialRectangle;right=0;left=0;" parent="1" vertex="1">
          <mxGeometry x="185" y="1140" width="100" height="30" as="geometry" />
        </mxCell>
        <mxCell id="zYKxcOfA-0-OGyM70KTu-28" style="edgeStyle=orthogonalEdgeStyle;rounded=0;orthogonalLoop=1;jettySize=auto;html=1;entryX=0;entryY=0.5;entryDx=0;entryDy=0;" parent="1" source="zYKxcOfA-0-OGyM70KTu-24" target="zYKxcOfA-0-OGyM70KTu-27" edge="1">
          <mxGeometry relative="1" as="geometry" />
        </mxCell>
        <mxCell id="zYKxcOfA-0-OGyM70KTu-24" value="verifikasi" style="rounded=0;whiteSpace=wrap;html=1;" parent="1" vertex="1">
          <mxGeometry x="340" y="1185" width="80" height="40" as="geometry" />
        </mxCell>
        <mxCell id="zYKxcOfA-0-OGyM70KTu-29" style="edgeStyle=orthogonalEdgeStyle;rounded=0;orthogonalLoop=1;jettySize=auto;html=1;entryX=0.5;entryY=0;entryDx=0;entryDy=0;exitX=0.532;exitY=1.012;exitDx=0;exitDy=0;exitPerimeter=0;" parent="1" source="zYKxcOfA-0-OGyM70KTu-27" target="zYKxcOfA-0-OGyM70KTu-19" edge="1">
          <mxGeometry relative="1" as="geometry" />
        </mxCell>
        <mxCell id="zYKxcOfA-0-OGyM70KTu-27" value="login ulang" style="rounded=0;whiteSpace=wrap;html=1;" parent="1" vertex="1">
          <mxGeometry x="520" y="1185" width="80" height="40" as="geometry" />
        </mxCell>
        <mxCell id="zYKxcOfA-0-OGyM70KTu-30" value="data profil&amp;nbsp;&lt;div&gt;pelanggan&lt;/div&gt;" style="text;html=1;align=center;verticalAlign=middle;resizable=0;points=[];autosize=1;strokeColor=none;fillColor=none;" parent="1" vertex="1">
          <mxGeometry x="80" y="1160" width="80" height="40" as="geometry" />
        </mxCell>
        <mxCell id="zYKxcOfA-0-OGyM70KTu-35" style="edgeStyle=orthogonalEdgeStyle;rounded=0;orthogonalLoop=1;jettySize=auto;html=1;entryX=0.5;entryY=1;entryDx=0;entryDy=0;exitX=0.75;exitY=0;exitDx=0;exitDy=0;" parent="1" source="zYKxcOfA-0-OGyM70KTu-33" target="zYKxcOfA-0-OGyM70KTu-19" edge="1">
          <mxGeometry relative="1" as="geometry">
            <mxPoint x="180" y="1500" as="sourcePoint" />
            <Array as="points">
              <mxPoint x="182" y="1490" />
              <mxPoint x="405" y="1490" />
            </Array>
          </mxGeometry>
        </mxCell>
        <mxCell id="zYKxcOfA-0-OGyM70KTu-36" style="edgeStyle=orthogonalEdgeStyle;rounded=0;orthogonalLoop=1;jettySize=auto;html=1;entryX=0;entryY=0.5;entryDx=0;entryDy=0;" parent="1" source="zYKxcOfA-0-OGyM70KTu-33" target="zYKxcOfA-0-OGyM70KTu-39" edge="1">
          <mxGeometry relative="1" as="geometry">
            <mxPoint x="370" y="1600.0000000000002" as="targetPoint" />
          </mxGeometry>
        </mxCell>
        <mxCell id="zYKxcOfA-0-OGyM70KTu-33" value="memesan" style="rounded=0;whiteSpace=wrap;html=1;" parent="1" vertex="1">
          <mxGeometry x="70" y="1575" width="150" height="50" as="geometry" />
        </mxCell>
        <mxCell id="zYKxcOfA-0-OGyM70KTu-56" style="edgeStyle=orthogonalEdgeStyle;rounded=0;orthogonalLoop=1;jettySize=auto;html=1;" parent="1" source="zYKxcOfA-0-OGyM70KTu-38" target="zYKxcOfA-0-OGyM70KTu-57" edge="1">
          <mxGeometry relative="1" as="geometry">
            <mxPoint x="250" y="410" as="targetPoint" />
          </mxGeometry>
        </mxCell>
        <mxCell id="zYKxcOfA-0-OGyM70KTu-38" value="pelanggan memesan" style="rounded=0;whiteSpace=wrap;html=1;" parent="1" vertex="1">
          <mxGeometry x="50" y="380" width="120" height="60" as="geometry" />
        </mxCell>
        <mxCell id="zYKxcOfA-0-OGyM70KTu-44" style="edgeStyle=orthogonalEdgeStyle;rounded=0;orthogonalLoop=1;jettySize=auto;html=1;" parent="1" source="zYKxcOfA-0-OGyM70KTu-39" edge="1">
          <mxGeometry relative="1" as="geometry">
            <mxPoint x="680" y="1390" as="targetPoint" />
          </mxGeometry>
        </mxCell>
        <mxCell id="zYKxcOfA-0-OGyM70KTu-39" value="metode pembayaran" style="rounded=1;whiteSpace=wrap;html=1;" parent="1" vertex="1">
          <mxGeometry x="350" y="1570" width="120" height="60" as="geometry" />
        </mxCell>
        <mxCell id="zYKxcOfA-0-OGyM70KTu-41" value="pemesanan" style="html=1;dashed=0;whiteSpace=wrap;shape=partialRectangle;right=0;left=0;" parent="1" vertex="1">
          <mxGeometry x="360" y="1530" width="100" height="30" as="geometry" />
        </mxCell>
        <mxCell id="zYKxcOfA-0-OGyM70KTu-46" value="kurir" style="rounded=1;whiteSpace=wrap;html=1;" parent="1" vertex="1">
          <mxGeometry x="620" y="1330" width="120" height="60" as="geometry" />
        </mxCell>
        <mxCell id="zYKxcOfA-0-OGyM70KTu-47" value="ongkir" style="html=1;dashed=0;whiteSpace=wrap;shape=partialRectangle;right=0;left=0;" parent="1" vertex="1">
          <mxGeometry x="750" y="1345" width="100" height="30" as="geometry" />
        </mxCell>
        <mxCell id="zYKxcOfA-0-OGyM70KTu-48" style="edgeStyle=orthogonalEdgeStyle;rounded=0;orthogonalLoop=1;jettySize=auto;html=1;entryX=0.952;entryY=0.283;entryDx=0;entryDy=0;entryPerimeter=0;exitX=-0.016;exitY=0.275;exitDx=0;exitDy=0;exitPerimeter=0;" parent="1" source="zYKxcOfA-0-OGyM70KTu-46" target="zYKxcOfA-0-OGyM70KTu-19" edge="1">
          <mxGeometry relative="1" as="geometry" />
        </mxCell>
        <mxCell id="zYKxcOfA-0-OGyM70KTu-49" style="edgeStyle=orthogonalEdgeStyle;rounded=0;orthogonalLoop=1;jettySize=auto;html=1;entryX=1.008;entryY=0.523;entryDx=0;entryDy=0;entryPerimeter=0;exitX=0.004;exitY=0.81;exitDx=0;exitDy=0;exitPerimeter=0;" parent="1" source="zYKxcOfA-0-OGyM70KTu-46" target="zYKxcOfA-0-OGyM70KTu-19" edge="1">
          <mxGeometry relative="1" as="geometry" />
        </mxCell>
        <mxCell id="zYKxcOfA-0-OGyM70KTu-51" value="data diterima" style="text;html=1;align=center;verticalAlign=middle;resizable=0;points=[];autosize=1;strokeColor=none;fillColor=none;" parent="1" vertex="1">
          <mxGeometry x="430" y="1240" width="90" height="30" as="geometry" />
        </mxCell>
        <mxCell id="zYKxcOfA-0-OGyM70KTu-53" value="memesan orderan" style="text;html=1;align=center;verticalAlign=middle;resizable=0;points=[];autosize=1;strokeColor=none;fillColor=none;" parent="1" vertex="1">
          <mxGeometry x="215" y="1468" width="120" height="30" as="geometry" />
        </mxCell>
        <mxCell id="D4lL_FsTmRYWsVsdBN-C-1" style="edgeStyle=orthogonalEdgeStyle;rounded=0;orthogonalLoop=1;jettySize=auto;html=1;exitX=0.5;exitY=1;exitDx=0;exitDy=0;entryX=-0.005;entryY=0.489;entryDx=0;entryDy=0;entryPerimeter=0;" parent="1" source="zYKxcOfA-0-OGyM70KTu-57" target="D4lL_FsTmRYWsVsdBN-C-2" edge="1">
          <mxGeometry relative="1" as="geometry">
            <mxPoint x="310" y="575" as="targetPoint" />
            <Array as="points">
              <mxPoint x="225" y="575" />
              <mxPoint x="280" y="575" />
            </Array>
          </mxGeometry>
        </mxCell>
        <mxCell id="zYKxcOfA-0-OGyM70KTu-57" value="pembelian diproses" style="html=1;dashed=0;whiteSpace=wrap;" parent="1" vertex="1">
          <mxGeometry x="175" y="490" width="100" height="50" as="geometry" />
        </mxCell>
        <mxCell id="zYKxcOfA-0-OGyM70KTu-58" value="pemesanan produk" style="html=1;dashed=0;whiteSpace=wrap;shape=partialRectangle;right=0;left=0;" parent="1" vertex="1">
          <mxGeometry x="65" y="500" width="100" height="30" as="geometry" />
        </mxCell>
        <mxCell id="zYKxcOfA-0-OGyM70KTu-59" value="pelanggan memencet beli" style="text;html=1;align=center;verticalAlign=middle;resizable=0;points=[];autosize=1;strokeColor=none;fillColor=none;rotation=90;" parent="1" vertex="1">
          <mxGeometry x="170" y="395" width="160" height="30" as="geometry" />
        </mxCell>
        <mxCell id="A8tOH84rVjiM_KudnCy5-1" value="mendapatkan struk dan resi dari admin" style="rounded=1;whiteSpace=wrap;html=1;" parent="1" vertex="1">
          <mxGeometry x="520" y="1575" width="120" height="60" as="geometry" />
        </mxCell>
        <mxCell id="A8tOH84rVjiM_KudnCy5-2" style="edgeStyle=orthogonalEdgeStyle;rounded=0;orthogonalLoop=1;jettySize=auto;html=1;exitX=0.5;exitY=0;exitDx=0;exitDy=0;entryX=0.931;entryY=0.774;entryDx=0;entryDy=0;entryPerimeter=0;" parent="1" source="A8tOH84rVjiM_KudnCy5-1" target="zYKxcOfA-0-OGyM70KTu-19" edge="1">
          <mxGeometry relative="1" as="geometry">
            <Array as="points">
              <mxPoint x="580" y="1411" />
            </Array>
            <mxPoint x="480" y="1410" as="targetPoint" />
          </mxGeometry>
        </mxCell>
        <mxCell id="D4lL_FsTmRYWsVsdBN-C-3" style="edgeStyle=orthogonalEdgeStyle;rounded=0;orthogonalLoop=1;jettySize=auto;html=1;entryX=-0.022;entryY=0.51;entryDx=0;entryDy=0;entryPerimeter=0;" parent="1" target="KOBJi0s3nrZwxr5E_nrI-1" edge="1">
          <mxGeometry relative="1" as="geometry">
            <mxPoint x="660" y="575" as="targetPoint" />
            <mxPoint x="385.0000000000001" y="574.8599999999999" as="sourcePoint" />
            <Array as="points">
              <mxPoint x="640" y="575" />
            </Array>
          </mxGeometry>
        </mxCell>
        <mxCell id="D4lL_FsTmRYWsVsdBN-C-2" value="admin mengirim struk" style="html=1;dashed=0;whiteSpace=wrap;" parent="1" vertex="1">
          <mxGeometry x="300" y="550" width="100" height="50" as="geometry" />
        </mxCell>
        <mxCell id="D4lL_FsTmRYWsVsdBN-C-11" value="bayar secara online" style="html=1;dashed=0;whiteSpace=wrap;" parent="1" vertex="1">
          <mxGeometry x="362.5" y="1640" width="75" height="40" as="geometry" />
        </mxCell>
        <mxCell id="D4lL_FsTmRYWsVsdBN-C-16" value="tb_produk" style="html=1;dashed=0;whiteSpace=wrap;shape=partialRectangle;right=0;left=0;" parent="1" vertex="1">
          <mxGeometry x="50" y="1430" width="100" height="30" as="geometry" />
        </mxCell>
        <mxCell id="I68T5o5sbE1FIt7aNAzE-2" style="edgeStyle=orthogonalEdgeStyle;rounded=0;orthogonalLoop=1;jettySize=auto;html=1;entryX=0.5;entryY=1;entryDx=0;entryDy=0;exitX=0.5;exitY=0;exitDx=0;exitDy=0;" parent="1" source="KOBJi0s3nrZwxr5E_nrI-1" target="kzGIVJuzbTHx1Urgwy5C-9" edge="1">
          <mxGeometry relative="1" as="geometry">
            <Array as="points">
              <mxPoint x="600" y="500" />
              <mxPoint x="395" y="500" />
            </Array>
          </mxGeometry>
        </mxCell>
        <mxCell id="KOBJi0s3nrZwxr5E_nrI-1" value="user mendapatkan resi" style="html=1;dashed=0;whiteSpace=wrap;" parent="1" vertex="1">
          <mxGeometry x="550" y="550" width="100" height="50" as="geometry" />
        </mxCell>
        <mxCell id="KOBJi0s3nrZwxr5E_nrI-2" value="admin mengupload resi&amp;nbsp;" style="text;html=1;align=center;verticalAlign=middle;resizable=0;points=[];autosize=1;strokeColor=none;fillColor=none;" parent="1" vertex="1">
          <mxGeometry x="400" y="550" width="150" height="30" as="geometry" />
        </mxCell>
      </root>
    </mxGraphModel>
  </diagram>
</mxfile>
